<mxfile host="app.diagrams.net" agent="Mozilla/5.0 (Windows NT 10.0; Win64; x64; rv:133.0) Gecko/20100101 Firefox/133.0" version="24.9.3">
  <diagram id="C5RBs43oDa-KdzZeNtuy" name="Page-1">
    <mxGraphModel dx="730" dy="1903" grid="1" gridSize="10" guides="1" tooltips="1" connect="1" arrows="1" fold="1" page="1" pageScale="1" pageWidth="827" pageHeight="1169" math="0" shadow="0">
      <root>
        <mxCell id="WIyWlLk6GJQsqaUBKTNV-0" />
        <mxCell id="WIyWlLk6GJQsqaUBKTNV-1" parent="WIyWlLk6GJQsqaUBKTNV-0" />
        <mxCell id="L1au-kwzUeggpMmvO1oj-28" style="edgeStyle=orthogonalEdgeStyle;rounded=0;orthogonalLoop=1;jettySize=auto;html=1;exitX=1;exitY=0.5;exitDx=0;exitDy=0;" edge="1" parent="WIyWlLk6GJQsqaUBKTNV-1" source="L1au-kwzUeggpMmvO1oj-0" target="L1au-kwzUeggpMmvO1oj-25">
          <mxGeometry relative="1" as="geometry" />
        </mxCell>
        <mxCell id="L1au-kwzUeggpMmvO1oj-0" value="数据库列表" style="rounded=0;whiteSpace=wrap;html=1;" vertex="1" parent="WIyWlLk6GJQsqaUBKTNV-1">
          <mxGeometry x="40" y="-1050" width="90" height="30" as="geometry" />
        </mxCell>
        <mxCell id="L1au-kwzUeggpMmvO1oj-12" value="" style="group" vertex="1" connectable="0" parent="WIyWlLk6GJQsqaUBKTNV-1">
          <mxGeometry x="370" y="-1085" width="110" height="100" as="geometry" />
        </mxCell>
        <mxCell id="L1au-kwzUeggpMmvO1oj-3" value="" style="rounded=1;whiteSpace=wrap;html=1;" vertex="1" parent="L1au-kwzUeggpMmvO1oj-12">
          <mxGeometry width="110" height="100" as="geometry" />
        </mxCell>
        <mxCell id="L1au-kwzUeggpMmvO1oj-6" value="巡检项列表" style="rounded=0;whiteSpace=wrap;html=1;" vertex="1" parent="L1au-kwzUeggpMmvO1oj-12">
          <mxGeometry x="15" y="60" width="80" height="20" as="geometry" />
        </mxCell>
        <mxCell id="L1au-kwzUeggpMmvO1oj-9" value="&lt;div&gt;单次任务信息&lt;/div&gt;" style="rounded=0;whiteSpace=wrap;html=1;" vertex="1" parent="L1au-kwzUeggpMmvO1oj-12">
          <mxGeometry x="7.5" y="20" width="95" height="20" as="geometry" />
        </mxCell>
        <mxCell id="L1au-kwzUeggpMmvO1oj-18" value="" style="group;autosize=0;resizeWidth=0;resizable=1;" vertex="1" connectable="0" parent="WIyWlLk6GJQsqaUBKTNV-1">
          <mxGeometry x="530" y="-1105" width="147.5" height="140" as="geometry" />
        </mxCell>
        <mxCell id="L1au-kwzUeggpMmvO1oj-17" value="" style="rounded=1;whiteSpace=wrap;html=1;" vertex="1" parent="L1au-kwzUeggpMmvO1oj-18">
          <mxGeometry width="147.5" height="140" as="geometry" />
        </mxCell>
        <mxCell id="L1au-kwzUeggpMmvO1oj-13" value="本次单一巡检项详情" style="rounded=0;whiteSpace=wrap;html=1;" vertex="1" parent="L1au-kwzUeggpMmvO1oj-18">
          <mxGeometry x="16.04" y="14.74" width="115.42" height="25.26" as="geometry" />
        </mxCell>
        <mxCell id="L1au-kwzUeggpMmvO1oj-15" value="&lt;div&gt;巡检项历史，查询某时间范围内结果。&lt;/div&gt;&lt;div&gt;数值类可做折线图。&lt;/div&gt;&lt;div&gt;判断类可做饼图。&lt;br&gt;&lt;/div&gt;" style="rounded=0;whiteSpace=wrap;html=1;" vertex="1" parent="L1au-kwzUeggpMmvO1oj-18">
          <mxGeometry x="16.04" y="50" width="113.96" height="70" as="geometry" />
        </mxCell>
        <mxCell id="L1au-kwzUeggpMmvO1oj-19" style="edgeStyle=orthogonalEdgeStyle;rounded=0;orthogonalLoop=1;jettySize=auto;html=1;exitX=1;exitY=0.5;exitDx=0;exitDy=0;entryX=0;entryY=0.5;entryDx=0;entryDy=0;" edge="1" parent="WIyWlLk6GJQsqaUBKTNV-1" source="L1au-kwzUeggpMmvO1oj-6" target="L1au-kwzUeggpMmvO1oj-17">
          <mxGeometry relative="1" as="geometry" />
        </mxCell>
        <mxCell id="L1au-kwzUeggpMmvO1oj-21" value="任务信息" style="rounded=0;whiteSpace=wrap;html=1;" vertex="1" parent="WIyWlLk6GJQsqaUBKTNV-1">
          <mxGeometry x="388.75" y="-1140" width="72.5" height="30" as="geometry" />
        </mxCell>
        <mxCell id="L1au-kwzUeggpMmvO1oj-20" style="edgeStyle=orthogonalEdgeStyle;rounded=0;orthogonalLoop=1;jettySize=auto;html=1;exitX=0.5;exitY=0;exitDx=0;exitDy=0;entryX=0.5;entryY=1;entryDx=0;entryDy=0;" edge="1" parent="WIyWlLk6GJQsqaUBKTNV-1" source="L1au-kwzUeggpMmvO1oj-9" target="L1au-kwzUeggpMmvO1oj-21">
          <mxGeometry relative="1" as="geometry">
            <mxPoint x="425" y="-1120" as="targetPoint" />
          </mxGeometry>
        </mxCell>
        <mxCell id="L1au-kwzUeggpMmvO1oj-27" value="" style="group" vertex="1" connectable="0" parent="WIyWlLk6GJQsqaUBKTNV-1">
          <mxGeometry x="195" y="-1120" width="120" height="170" as="geometry" />
        </mxCell>
        <mxCell id="L1au-kwzUeggpMmvO1oj-25" value="" style="rounded=1;whiteSpace=wrap;html=1;" vertex="1" parent="L1au-kwzUeggpMmvO1oj-27">
          <mxGeometry width="120" height="170" as="geometry" />
        </mxCell>
        <mxCell id="L1au-kwzUeggpMmvO1oj-1" value="&lt;div&gt;任务列表&lt;/div&gt;" style="rounded=0;whiteSpace=wrap;html=1;" vertex="1" parent="L1au-kwzUeggpMmvO1oj-27">
          <mxGeometry x="13" y="130" width="90" height="30" as="geometry" />
        </mxCell>
        <mxCell id="L1au-kwzUeggpMmvO1oj-23" value="时间范围查询" style="rounded=0;whiteSpace=wrap;html=1;" vertex="1" parent="L1au-kwzUeggpMmvO1oj-27">
          <mxGeometry x="15" y="10" width="90" height="30" as="geometry" />
        </mxCell>
        <mxCell id="L1au-kwzUeggpMmvO1oj-26" value="时间范围内任务得分趋势" style="rounded=0;whiteSpace=wrap;html=1;" vertex="1" parent="L1au-kwzUeggpMmvO1oj-27">
          <mxGeometry x="13" y="62.5" width="92" height="45" as="geometry" />
        </mxCell>
        <mxCell id="L1au-kwzUeggpMmvO1oj-29" style="edgeStyle=orthogonalEdgeStyle;rounded=0;orthogonalLoop=1;jettySize=auto;html=1;exitX=1;exitY=0.5;exitDx=0;exitDy=0;entryX=0;entryY=0.5;entryDx=0;entryDy=0;" edge="1" parent="WIyWlLk6GJQsqaUBKTNV-1" source="L1au-kwzUeggpMmvO1oj-1" target="L1au-kwzUeggpMmvO1oj-3">
          <mxGeometry relative="1" as="geometry" />
        </mxCell>
      </root>
    </mxGraphModel>
  </diagram>
</mxfile>
